<svg id="visual" viewBox="0 0 960 540" width="960" height="540" xmlns="http://www.w3.org/2000/svg" xmlns:xlink="http://www.w3.org/1999/xlink" version="1.1"><rect x="0" y="0" width="960" height="540" fill="#001220"></rect><defs><linearGradient id="grad1_0" x1="43.8%" y1="0%" x2="100%" y2="100%"><stop offset="14.444444444444446%" stop-color="#fbae3c" stop-opacity="1"></stop><stop offset="85.55555555555554%" stop-color="#fbae3c" stop-opacity="1"></stop></linearGradient></defs><defs><linearGradient id="grad1_1" x1="43.8%" y1="0%" x2="100%" y2="100%"><stop offset="14.444444444444446%" stop-color="#fbae3c" stop-opacity="1"></stop><stop offset="85.55555555555554%" stop-color="#e1685e" stop-opacity="1"></stop></linearGradient></defs><defs><linearGradient id="grad1_2" x1="43.8%" y1="0%" x2="100%" y2="100%"><stop offset="14.444444444444446%" stop-color="#96446e" stop-opacity="1"></stop><stop offset="85.55555555555554%" stop-color="#e1685e" stop-opacity="1"></stop></linearGradient></defs><defs><linearGradient id="grad1_3" x1="43.8%" y1="0%" x2="100%" y2="100%"><stop offset="14.444444444444446%" stop-color="#96446e" stop-opacity="1"></stop><stop offset="85.55555555555554%" stop-color="#3d3056" stop-opacity="1"></stop></linearGradient></defs><defs><linearGradient id="grad1_4" x1="43.8%" y1="0%" x2="100%" y2="100%"><stop offset="14.444444444444446%" stop-color="#001220" stop-opacity="1"></stop><stop offset="85.55555555555554%" stop-color="#3d3056" stop-opacity="1"></stop></linearGradient></defs><defs><linearGradient id="grad2_0" x1="0%" y1="0%" x2="56.3%" y2="100%"><stop offset="14.444444444444446%" stop-color="#fbae3c" stop-opacity="1"></stop><stop offset="85.55555555555554%" stop-color="#fbae3c" stop-opacity="1"></stop></linearGradient></defs><defs><linearGradient id="grad2_1" x1="0%" y1="0%" x2="56.3%" y2="100%"><stop offset="14.444444444444446%" stop-color="#e1685e" stop-opacity="1"></stop><stop offset="85.55555555555554%" stop-color="#fbae3c" stop-opacity="1"></stop></linearGradient></defs><defs><linearGradient id="grad2_2" x1="0%" y1="0%" x2="56.3%" y2="100%"><stop offset="14.444444444444446%" stop-color="#e1685e" stop-opacity="1"></stop><stop offset="85.55555555555554%" stop-color="#96446e" stop-opacity="1"></stop></linearGradient></defs><defs><linearGradient id="grad2_3" x1="0%" y1="0%" x2="56.3%" y2="100%"><stop offset="14.444444444444446%" stop-color="#3d3056" stop-opacity="1"></stop><stop offset="85.55555555555554%" stop-color="#96446e" stop-opacity="1"></stop></linearGradient></defs><defs><linearGradient id="grad2_4" x1="0%" y1="0%" x2="56.3%" y2="100%"><stop offset="14.444444444444446%" stop-color="#3d3056" stop-opacity="1"></stop><stop offset="85.55555555555554%" stop-color="#001220" stop-opacity="1"></stop></linearGradient></defs><g transform="translate(960, 0)"><path d="M0 351C-40.3 353 -80.5 354.9 -108.5 333.8C-136.4 312.7 -152 268.5 -175.7 241.9C-199.5 215.3 -231.5 206.4 -256.5 186.3C-281.4 166.2 -299.3 134.9 -313.8 102C-328.4 69.1 -339.7 34.5 -351 0L0 0Z" fill="#18223c"></path><path d="M0 280.8C-32.2 282.4 -64.4 284 -86.8 267.1C-109.1 250.2 -121.6 214.8 -140.6 193.5C-159.6 172.3 -185.2 165.1 -205.2 149.1C-225.1 133 -239.4 107.9 -251.1 81.6C-262.7 55.2 -271.8 27.6 -280.8 0L0 0Z" fill="#683a67"></path><path d="M0 210.6C-24.2 211.8 -48.3 213 -65.1 200.3C-81.8 187.6 -91.2 161.1 -105.4 145.1C-119.7 129.2 -138.9 123.9 -153.9 111.8C-168.8 99.7 -179.6 80.9 -188.3 61.2C-197.1 41.4 -203.8 20.7 -210.6 0L0 0Z" fill="#c0526a"></path><path d="M0 140.4C-16.1 141.2 -32.2 142 -43.4 133.5C-54.6 125.1 -60.8 107.4 -70.3 96.8C-79.8 86.1 -92.6 82.6 -102.6 74.5C-112.6 66.5 -119.7 54 -125.5 40.8C-131.4 27.6 -135.9 13.8 -140.4 0L0 0Z" fill="#f6884d"></path><path d="M0 70.2C-8.1 70.6 -16.1 71 -21.7 66.8C-27.3 62.5 -30.4 53.7 -35.1 48.4C-39.9 43.1 -46.3 41.3 -51.3 37.3C-56.3 33.2 -59.9 27 -62.8 20.4C-65.7 13.8 -67.9 6.9 -70.2 0L0 0Z" fill="#fbae3c"></path></g><g transform="translate(0, 540)"><path d="M0 -351C33.3 -333.5 66.6 -316 98.3 -302.4C129.9 -288.8 159.8 -279.1 192.8 -265.4C225.8 -251.6 261.8 -233.9 284 -206.3C306.1 -178.7 314.5 -141.1 323.4 -105.1C332.2 -69 341.6 -34.5 351 0L0 0Z" fill="#18223c"></path><path d="M0 -280.8C26.7 -266.8 53.3 -252.8 78.6 -241.9C103.9 -231.1 127.9 -223.3 154.2 -212.3C180.6 -201.3 209.4 -187.2 227.2 -165.1C244.9 -142.9 251.6 -112.9 258.7 -84.1C265.8 -55.2 273.3 -27.6 280.8 0L0 0Z" fill="#683a67"></path><path d="M0 -210.6C20 -200.1 40 -189.6 59 -181.5C77.9 -173.3 95.9 -167.4 115.7 -159.2C135.5 -151 157.1 -140.4 170.4 -123.8C183.7 -107.2 188.7 -84.7 194 -63C199.3 -41.4 205 -20.7 210.6 0L0 0Z" fill="#c0526a"></path><path d="M0 -140.4C13.3 -133.4 26.7 -126.4 39.3 -121C52 -115.5 63.9 -111.6 77.1 -106.1C90.3 -100.7 104.7 -93.6 113.6 -82.5C122.5 -71.5 125.8 -56.4 129.3 -42C132.9 -27.6 136.6 -13.8 140.4 0L0 0Z" fill="#f6884d"></path><path d="M0 -70.2C6.7 -66.7 13.3 -63.2 19.7 -60.5C26 -57.8 32 -55.8 38.6 -53.1C45.2 -50.3 52.4 -46.8 56.8 -41.3C61.2 -35.7 62.9 -28.2 64.7 -21C66.4 -13.8 68.3 -6.9 70.2 0L0 0Z" fill="#fbae3c"></path></g></svg>