<svg id="visual" viewBox="0 0 960 540" width="960" height="540" xmlns="http://www.w3.org/2000/svg" xmlns:xlink="http://www.w3.org/1999/xlink" version="1.1"><rect x="0" y="0" width="960" height="540" fill="#001220"></rect><defs><linearGradient id="grad1_0" x1="43.8%" y1="100%" x2="100%" y2="0%"><stop offset="14.444444444444446%" stop-color="#fbae3c" stop-opacity="1"></stop><stop offset="85.55555555555554%" stop-color="#fbae3c" stop-opacity="1"></stop></linearGradient></defs><defs><linearGradient id="grad1_1" x1="43.8%" y1="100%" x2="100%" y2="0%"><stop offset="14.444444444444446%" stop-color="#fbae3c" stop-opacity="1"></stop><stop offset="85.55555555555554%" stop-color="#e1685e" stop-opacity="1"></stop></linearGradient></defs><defs><linearGradient id="grad1_2" x1="43.8%" y1="100%" x2="100%" y2="0%"><stop offset="14.444444444444446%" stop-color="#96446e" stop-opacity="1"></stop><stop offset="85.55555555555554%" stop-color="#e1685e" stop-opacity="1"></stop></linearGradient></defs><defs><linearGradient id="grad1_3" x1="43.8%" y1="100%" x2="100%" y2="0%"><stop offset="14.444444444444446%" stop-color="#96446e" stop-opacity="1"></stop><stop offset="85.55555555555554%" stop-color="#3d3056" stop-opacity="1"></stop></linearGradient></defs><defs><linearGradient id="grad1_4" x1="43.8%" y1="100%" x2="100%" y2="0%"><stop offset="14.444444444444446%" stop-color="#001220" stop-opacity="1"></stop><stop offset="85.55555555555554%" stop-color="#3d3056" stop-opacity="1"></stop></linearGradient></defs><defs><linearGradient id="grad2_0" x1="0%" y1="100%" x2="56.3%" y2="0%"><stop offset="14.444444444444446%" stop-color="#fbae3c" stop-opacity="1"></stop><stop offset="85.55555555555554%" stop-color="#fbae3c" stop-opacity="1"></stop></linearGradient></defs><defs><linearGradient id="grad2_1" x1="0%" y1="100%" x2="56.3%" y2="0%"><stop offset="14.444444444444446%" stop-color="#e1685e" stop-opacity="1"></stop><stop offset="85.55555555555554%" stop-color="#fbae3c" stop-opacity="1"></stop></linearGradient></defs><defs><linearGradient id="grad2_2" x1="0%" y1="100%" x2="56.3%" y2="0%"><stop offset="14.444444444444446%" stop-color="#e1685e" stop-opacity="1"></stop><stop offset="85.55555555555554%" stop-color="#96446e" stop-opacity="1"></stop></linearGradient></defs><defs><linearGradient id="grad2_3" x1="0%" y1="100%" x2="56.3%" y2="0%"><stop offset="14.444444444444446%" stop-color="#3d3056" stop-opacity="1"></stop><stop offset="85.55555555555554%" stop-color="#96446e" stop-opacity="1"></stop></linearGradient></defs><defs><linearGradient id="grad2_4" x1="0%" y1="100%" x2="56.3%" y2="0%"><stop offset="14.444444444444446%" stop-color="#3d3056" stop-opacity="1"></stop><stop offset="85.55555555555554%" stop-color="#001220" stop-opacity="1"></stop></linearGradient></defs><g transform="translate(960, 540)"><path d="M-540 0C-526.8 -96.1 -513.6 -192.1 -467.7 -270C-421.7 -347.9 -342.9 -407.5 -259.5 -449.5C-176.1 -491.4 -88 -515.7 0 -540L0 0Z" fill="#18223c"></path><path d="M-432 0C-421.5 -76.9 -410.9 -153.7 -374.1 -216C-337.3 -278.3 -274.3 -326 -207.6 -359.6C-140.9 -393.1 -70.4 -412.6 0 -432L0 0Z" fill="#683a67"></path><path d="M-324 0C-316.1 -57.6 -308.2 -115.3 -280.6 -162C-253 -208.7 -205.7 -244.5 -155.7 -269.7C-105.7 -294.9 -52.8 -309.4 0 -324L0 0Z" fill="#c0526a"></path><path d="M-216 0C-210.7 -38.4 -205.5 -76.9 -187.1 -108C-168.7 -139.1 -137.2 -163 -103.8 -179.8C-70.4 -196.6 -35.2 -206.3 0 -216L0 0Z" fill="#f6884d"></path><path d="M-108 0C-105.4 -19.2 -102.7 -38.4 -93.5 -54C-84.3 -69.6 -68.6 -81.5 -51.9 -89.9C-35.2 -98.3 -17.6 -103.1 0 -108L0 0Z" fill="#fbae3c"></path></g><g transform="translate(0, 0)"><path d="M540 0C530.3 102.1 520.6 204.2 467.7 270C414.7 335.8 318.6 365.5 233.5 404.4C148.4 443.4 74.2 491.7 0 540L0 0Z" fill="#18223c"></path><path d="M432 0C424.2 81.7 416.5 163.3 374.1 216C331.8 268.7 254.9 292.4 186.8 323.5C118.7 354.7 59.3 393.4 0 432L0 0Z" fill="#683a67"></path><path d="M324 0C318.2 61.2 312.3 122.5 280.6 162C248.8 201.5 191.2 219.3 140.1 242.7C89 266 44.5 295 0 324L0 0Z" fill="#c0526a"></path><path d="M216 0C212.1 40.8 208.2 81.7 187.1 108C165.9 134.3 127.5 146.2 93.4 161.8C59.3 177.4 29.7 196.7 0 216L0 0Z" fill="#f6884d"></path><path d="M108 0C106.1 20.4 104.1 40.8 93.5 54C82.9 67.2 63.7 73.1 46.7 80.9C29.7 88.7 14.8 98.3 0 108L0 0Z" fill="#fbae3c"></path></g></svg>