<svg id="visual" viewBox="0 0 960 540" width="960" height="540" xmlns="http://www.w3.org/2000/svg" xmlns:xlink="http://www.w3.org/1999/xlink" version="1.1"><path d="M0 23L40 23.8C80 24.7 160 26.3 240 26.3C320 26.3 400 24.7 480 23.8C560 23 640 23 720 23.8C800 24.7 880 26.3 920 27.2L960 28L960 0L920 0C880 0 800 0 720 0C640 0 560 0 480 0C400 0 320 0 240 0C160 0 80 0 40 0L0 0Z" fill="#fbae3c"></path><path d="M0 66L40 65C80 64 160 62 240 61C320 60 400 60 480 61C560 62 640 64 720 66.8C800 69.7 880 73.3 920 75.2L960 77L960 26L920 25.2C880 24.3 800 22.7 720 21.8C640 21 560 21 480 21.8C400 22.7 320 24.3 240 24.3C160 24.3 80 22.7 40 21.8L0 21Z" fill="#f78f49"></path><path d="M0 93L40 91.2C80 89.3 160 85.7 240 84.7C320 83.7 400 85.3 480 86.2C560 87 640 87 720 89.8C800 92.7 880 98.3 920 101.2L960 104L960 75L920 73.2C880 71.3 800 67.7 720 64.8C640 62 560 60 480 59C400 58 320 58 240 59C160 60 80 62 40 63L0 64Z" fill="#ea7457"></path><path d="M0 152L40 152C80 152 160 152 240 153.8C320 155.7 400 159.3 480 159.3C560 159.3 640 155.7 720 157.5C800 159.3 880 166.7 920 170.3L960 174L960 102L920 99.2C880 96.3 800 90.7 720 87.8C640 85 560 85 480 84.2C400 83.3 320 81.7 240 82.7C160 83.7 80 87.3 40 89.2L0 91Z" fill="#d35e63"></path><path d="M0 185L40 185.8C80 186.7 160 188.3 240 191.8C320 195.3 400 200.7 480 199.8C560 199 640 192 720 192C800 192 880 199 920 202.5L960 206L960 172L920 168.3C880 164.7 800 157.3 720 155.5C640 153.7 560 157.3 480 157.3C400 157.3 320 153.7 240 151.8C160 150 80 150 40 150L0 150Z" fill="#b54e6a"></path><path d="M0 206L40 207.8C80 209.7 160 213.3 240 218.8C320 224.3 400 231.7 480 231.7C560 231.7 640 224.3 720 222.5C800 220.7 880 224.3 920 226.2L960 228L960 204L920 200.5C880 197 800 190 720 190C640 190 560 197 480 197.8C400 198.7 320 193.3 240 189.8C160 186.3 80 184.7 40 183.8L0 183Z" fill="#93436b"></path><path d="M0 309L40 314.3C80 319.7 160 330.3 240 335.7C320 341 400 341 480 337.5C560 334 640 327 720 327C800 327 880 334 920 337.5L960 341L960 226L920 224.2C880 222.3 800 218.7 720 220.5C640 222.3 560 229.7 480 229.7C400 229.7 320 222.3 240 216.8C160 211.3 80 207.7 40 205.8L0 204Z" fill="#6f3b65"></path><path d="M0 336L40 340.5C80 345 160 354 240 359.3C320 364.7 400 366.3 480 362.7C560 359 640 350 720 349.2C800 348.3 880 355.7 920 359.3L960 363L960 339L920 335.5C880 332 800 325 720 325C640 325 560 332 480 335.5C400 339 320 339 240 333.7C160 328.3 80 317.7 40 312.3L0 307Z" fill="#4c3259"></path><path d="M0 368L40 373.5C80 379 160 390 240 394.5C320 399 400 397 480 391.5C560 386 640 377 720 376.2C800 375.3 880 382.7 920 386.3L960 390L960 361L920 357.3C880 353.7 800 346.3 720 347.2C640 348 560 357 480 360.7C400 364.3 320 362.7 240 357.3C160 352 80 343 40 338.5L0 334Z" fill="#2c2847"></path><path d="M0 482L40 483.7C80 485.3 160 488.7 240 491.3C320 494 400 496 480 496C560 496 640 494 720 491.3C800 488.7 880 485.3 920 483.7L960 482L960 388L920 384.3C880 380.7 800 373.3 720 374.2C640 375 560 384 480 389.5C400 395 320 397 240 392.5C160 388 80 377 40 371.5L0 366Z" fill="#141d32"></path><path d="M0 541L40 541C80 541 160 541 240 541C320 541 400 541 480 541C560 541 640 541 720 541C800 541 880 541 920 541L960 541L960 480L920 481.7C880 483.3 800 486.7 720 489.3C640 492 560 494 480 494C400 494 320 492 240 489.3C160 486.7 80 483.3 40 481.7L0 480Z" fill="#000e1b"></path></svg>